<svg width="89" height="90" viewBox="0 0 89 90" fill="none" xmlns="http://www.w3.org/2000/svg">
<g filter="url(#filter0_d_2_1171)">
<path d="M44.4642 49.9174C57.8823 49.9174 68.7598 38.8231 68.7598 25.1374C68.7598 11.4518 57.8823 0.357422 44.4642 0.357422C31.0462 0.357422 20.1687 11.4518 20.1687 25.1374C20.1687 38.8231 31.0462 49.9174 44.4642 49.9174Z" fill="white"/>
<path d="M48.483 22.832C49.2151 21.1035 48.8824 19.0318 47.4718 17.6236C45.6156 15.7687 42.6066 15.7687 40.7504 17.6236C39.3398 19.0318 39.0071 21.1035 39.739 22.832" stroke="#00CA90" stroke-width="2" stroke-linecap="round" stroke-linejoin="round"/>
<path d="M39.9508 26.3237L44.1101 28.1053L46.4868 32.854L50.0519 28.1053" stroke="#00CA90" stroke-width="2" stroke-linecap="round" stroke-linejoin="round"/>
<path d="M33.4169 38.7911L35.7936 36.4163V34.0414L38.1703 31.6676V29.2928L40.5471 24.5431L41.7355 22.1683L44.1122 19.7935L50.054 28.1054L52.4308 29.2928L54.8076 30.4802L55.9959 34.0414L59.561 38.7911" stroke="#00CA90" stroke-width="2" stroke-linecap="round" stroke-linejoin="round"/>
<path d="M44.1144 11.4827V13.8575" stroke="#00CA90" stroke-width="2" stroke-linecap="round" stroke-linejoin="round"/>
<path d="M39.3621 12.7554L40.5506 14.812" stroke="#00CA90" stroke-width="2" stroke-linecap="round" stroke-linejoin="round"/>
<path d="M35.8813 16.2324L37.9396 17.4198" stroke="#00CA90" stroke-width="2" stroke-linecap="round" stroke-linejoin="round"/>
<path d="M50.2872 24.5432L52.3456 25.7306" stroke="#00CA90" stroke-width="2" stroke-linecap="round" stroke-linejoin="round"/>
<path d="M34.606 20.981H36.9827" stroke="#00CA90" stroke-width="2" stroke-linecap="round" stroke-linejoin="round"/>
<path d="M51.2409 20.981H53.6176" stroke="#00CA90" stroke-width="2" stroke-linecap="round" stroke-linejoin="round"/>
<path d="M35.8813 25.7306L37.9396 24.5432" stroke="#00CA90" stroke-width="2" stroke-linecap="round" stroke-linejoin="round"/>
<path d="M50.2872 17.4198L52.3456 16.2324" stroke="#00CA90" stroke-width="2" stroke-linecap="round" stroke-linejoin="round"/>
<path d="M47.6816 14.812L48.8699 12.7554" stroke="#00CA90" stroke-width="2" stroke-linecap="round" stroke-linejoin="round"/>
</g>
<defs>
<filter id="filter0_d_2_1171" x="0.168671" y="0.357422" width="88.5911" height="89.5601" filterUnits="userSpaceOnUse" color-interpolation-filters="sRGB">
<feFlood flood-opacity="0" result="BackgroundImageFix"/>
<feColorMatrix in="SourceAlpha" type="matrix" values="0 0 0 0 0 0 0 0 0 0 0 0 0 0 0 0 0 0 127 0" result="hardAlpha"/>
<feOffset dy="20"/>
<feGaussianBlur stdDeviation="10"/>
<feColorMatrix type="matrix" values="0 0 0 0 0.117951 0 0 0 0 0.329167 0 0 0 0 0.177092 0 0 0 0.15 0"/>
<feBlend mode="normal" in2="BackgroundImageFix" result="effect1_dropShadow_2_1171"/>
<feBlend mode="normal" in="SourceGraphic" in2="effect1_dropShadow_2_1171" result="shape"/>
</filter>
</defs>
</svg>
