<svg width="115" height="114" viewBox="0 0 115 114" fill="none" xmlns="http://www.w3.org/2000/svg">
<g filter="url(#filter0_d_2_1131)">
<path d="M57.446 73.8882C77.8526 73.8882 94.3955 57.3598 94.3955 36.9709C94.3955 16.5821 77.8526 0.0537109 57.446 0.0537109C37.0394 0.0537109 20.4966 16.5821 20.4966 36.9709C20.4966 57.3598 37.0394 73.8882 57.446 73.8882Z" fill="white"/>
<path fill-rule="evenodd" clip-rule="evenodd" d="M56.4475 31.2918C53.3212 34.4154 48.2529 34.4154 45.1276 31.2918C42.0013 28.1671 42.0013 23.1033 45.1276 19.9807C48.2529 16.8571 54.1781 14.0828 62.3495 14.0828C58.1995 18.2292 59.5748 28.1671 56.4475 31.2918Z" stroke="#00CA90" stroke-width="2" stroke-linecap="round" stroke-linejoin="round"/>
<path d="M52.5667 21.9038C51.751 21.9038 42.7828 29.1136 42.7828 37.5439" stroke="#00CA90" stroke-width="2" stroke-linecap="round" stroke-linejoin="round"/>
<path d="M54.5276 53.1853H62.3546" stroke="#00CA90" stroke-width="2" stroke-linecap="round" stroke-linejoin="round"/>
<path d="M56.4787 59.051H60.3915" stroke="#00CA90" stroke-width="2" stroke-linecap="round" stroke-linejoin="round"/>
<path d="M50.2742 39.7452C50.7323 42.1441 51.8805 47.3194 54.5257 47.3194H62.3536C64.9796 47.3194 66.1299 42.2164 66.594 39.7954C66.7467 39.0055 67.1807 38.3179 67.7694 37.7699C70.4527 35.2736 72.1374 31.7214 72.1374 27.7677C72.1374 23.818 70.4527 20.2779 67.7694 17.7876" stroke="#00CA90" stroke-width="2" stroke-linecap="round" stroke-linejoin="round"/>
</g>
<defs>
<filter id="filter0_d_2_1131" x="0.496582" y="0.0537109" width="113.899" height="113.834" filterUnits="userSpaceOnUse" color-interpolation-filters="sRGB">
<feFlood flood-opacity="0" result="BackgroundImageFix"/>
<feColorMatrix in="SourceAlpha" type="matrix" values="0 0 0 0 0 0 0 0 0 0 0 0 0 0 0 0 0 0 127 0" result="hardAlpha"/>
<feOffset dy="20"/>
<feGaussianBlur stdDeviation="10"/>
<feColorMatrix type="matrix" values="0 0 0 0 0.117951 0 0 0 0 0.329167 0 0 0 0 0.177092 0 0 0 0.15 0"/>
<feBlend mode="normal" in2="BackgroundImageFix" result="effect1_dropShadow_2_1131"/>
<feBlend mode="normal" in="SourceGraphic" in2="effect1_dropShadow_2_1131" result="shape"/>
</filter>
</defs>
</svg>
