<svg width="97" height="97" viewBox="0 0 97 97" fill="none" xmlns="http://www.w3.org/2000/svg">
<g filter="url(#filter0_d_2_1221)">
<path d="M48.4107 56.7058C63.7855 56.7058 76.2493 44.0265 76.2493 28.3857C76.2493 12.745 63.7855 0.0656738 48.4107 0.0656738C33.0359 0.0656738 20.5721 12.745 20.5721 28.3857C20.5721 44.0265 33.0359 56.7058 48.4107 56.7058Z" fill="white"/>
<path fill-rule="evenodd" clip-rule="evenodd" d="M31.697 27.1542L38.9593 19.8982L46.2216 25.7028L44.769 27.1542H31.697Z" stroke="#00CA90" stroke-width="2" stroke-linecap="round" stroke-linejoin="round"/>
<path d="M38.9563 19.8982H49.1239V22.801L46.2186 25.7028" stroke="#00CA90" stroke-width="2" stroke-linecap="round" stroke-linejoin="round"/>
<path fill-rule="evenodd" clip-rule="evenodd" d="M47.6754 44.5688L40.413 37.3129L46.2226 30.0569L47.6754 31.5083V44.5688Z" stroke="#00CA90" stroke-width="2" stroke-linecap="round" stroke-linejoin="round"/>
<path d="M40.413 37.3131V27.1543H43.3173L46.2226 30.0571" stroke="#00CA90" stroke-width="2" stroke-linecap="round" stroke-linejoin="round"/>
<path fill-rule="evenodd" clip-rule="evenodd" d="M65.1012 28.6055L57.8389 35.8614L50.5766 30.0569L52.0292 28.6055H65.1012Z" stroke="#00CA90" stroke-width="2" stroke-linecap="round" stroke-linejoin="round"/>
<path d="M57.8399 35.8614H47.6722V32.9587L50.5776 30.0569" stroke="#00CA90" stroke-width="2" stroke-linecap="round" stroke-linejoin="round"/>
<path fill-rule="evenodd" clip-rule="evenodd" d="M49.1249 11.1919L56.3862 18.4479L50.5766 25.7028L49.1249 24.2524V11.1919Z" stroke="#00CA90" stroke-width="2" stroke-linecap="round" stroke-linejoin="round"/>
<path d="M56.3862 18.4478V28.6055H53.4809L50.5766 25.7037" stroke="#00CA90" stroke-width="2" stroke-linecap="round" stroke-linejoin="round"/>
</g>
<defs>
<filter id="filter0_d_2_1221" x="0.572083" y="0.0656738" width="95.6772" height="96.6401" filterUnits="userSpaceOnUse" color-interpolation-filters="sRGB">
<feFlood flood-opacity="0" result="BackgroundImageFix"/>
<feColorMatrix in="SourceAlpha" type="matrix" values="0 0 0 0 0 0 0 0 0 0 0 0 0 0 0 0 0 0 127 0" result="hardAlpha"/>
<feOffset dy="20"/>
<feGaussianBlur stdDeviation="10"/>
<feColorMatrix type="matrix" values="0 0 0 0 0.117951 0 0 0 0 0.329167 0 0 0 0 0.177092 0 0 0 0.15 0"/>
<feBlend mode="normal" in2="BackgroundImageFix" result="effect1_dropShadow_2_1221"/>
<feBlend mode="normal" in="SourceGraphic" in2="effect1_dropShadow_2_1221" result="shape"/>
</filter>
</defs>
</svg>
